<?xml version="1.0" standalone="no"?>
<!DOCTYPE svg PUBLIC "-//W3C//DTD SVG 20010904//EN" "http://www.w3.org/TR/2001/REC-SVG-20010904/DTD/svg10.dtd">
<svg xmlns="http://www.w3.org/2000/svg" version="1.0" width="1024.000000pt" height="1024.000000pt" viewBox="0 0 1024.000000 1024.000000" preserveAspectRatio="xMidYMid meet">
<metadata>
Created by potrace 1.16, written by Peter Selinger 2001-2019
<meta name="Producer" content="Online-Convert"/></metadata>
<g transform="translate(0.000000,1024.000000) scale(0.100000,-0.100000)" fill="#e5e7eb" stroke="none">
<path d="M5265 9226 c-165 -41 -352 -86 -415 -101 -109 -25 -399 -96 -910 -219 -124 -30 -310 -76 -415 -101 -530 -127 -1266 -308 -1310 -322 -113 -34 -175 -91 -201 -185 -12 -45 -13 -101 -4 -358 5 -168 14 -462 20 -655 5 -192 12 -411 15 -485 l6 -135 -32 35 c-18 19 -75 82 -128 139 -53 58 -95 109 -93 114 1 5 -2 6 -7 3 -5 -3 -44 24 -88 60 -141 117 -285 201 -393 229 -89 23 -229 17 -286 -12 -62 -33 -111 -94 -131 -163 l-16 -60 -67 0 c-95 0 -166 -25 -218 -78 -71 -70 -87 -117 -87 -255 l-1 -117 -41 -43 c-62 -62 -84 -121 -85 -220 -1 -219 122 -448 376 -702 205 -204 375 -318 572 -384 75 -25 89 -34 92 -53 8 -68 16 -91 47 -136 18 -28 31 -53 27 -58 -4 -4 -1 -4 5 0 8 4 29 -5 50 -22 69 -53 137 -75 253 -80 78 -3 119 0 159 12 64 19 64 19 122 -67 74 -108 88 -153 104 -323 16 -172 27 -204 97 -271 24 -22 108 -83 188 -135 80 -52 182 -118 227 -147 46 -30 80 -58 76 -64 -3 -6 -1 -7 5 -3 7 4 187 -104 419 -252 225 -143 450 -285 501 -317 86 -53 92 -58 75 -72 -17 -13 -16 -13 5 -3 20 10 35 3 122 -51 55 -34 100 -66 100 -71 0 -5 4 -7 9 -4 16 10 33 -23 27 -51 -20 -85 -174 -529 -205 -592 l-36 -74 -53 -3 c-86 -5 -145 -30 -192 -80 -61 -66 -80 -114 -80 -207 0 -77 -1 -80 -39 -123 -60 -68 -86 -161 -86 -304 1 -152 36 -267 112 -369 21 -27 23 -35 12 -43 -11 -8 -11 -9 2 -5 10 3 28 -6 45 -25 44 -46 140 -111 229 -156 287 -143 763 -190 1091 -107 152 38 252 91 339 178 113 113 159 224 157 382 -1 175 -51 304 -157 410 -118 118 -267 174 -490 184 -82 3 -140 10 -140 16 -2 41 -20 89 -50 130 -19 27 -32 52 -29 57 3 4 -1 5 -9 2 -25 -9 -29 14 -13 64 8 26 31 110 51 187 74 288 97 366 114 374 15 8 359 100 946 252 312 81 324 83 330 77 14 -14 67 -190 82 -272 21 -112 24 -429 6 -492 -11 -36 -19 -43 -70 -64 -76 -31 -155 -111 -178 -179 -11 -34 -16 -76 -14 -129 3 -73 1 -82 -23 -110 -50 -60 -76 -184 -58 -284 43 -237 245 -391 630 -478 184 -42 300 -53 550 -53 245 0 355 15 498 69 278 104 442 332 442 614 0 284 -153 490 -410 556 -137 36 -379 17 -556 -42 l-76 -26 -37 34 c-20 19 -52 46 -72 60 l-36 27 -7 168 c-11 253 -42 480 -92 649 -13 48 -23 88 -22 90 2 1 107 30 235 63 127 33 264 69 305 80 40 11 296 78 568 150 272 71 508 135 525 141 48 18 116 81 136 124 12 28 21 89 28 196 20 286 43 645 43 663 -1 9 1 17 3 17 7 0 104 -158 151 -247 l49 -91 -33 -44 c-93 -124 -135 -274 -112 -400 13 -75 14 -71 -60 -183 -78 -119 -127 -181 -219 -279 -109 -116 -134 -165 -139 -267 -3 -61 0 -85 18 -127 24 -57 95 -129 156 -160 56 -28 146 -44 207 -37 l52 7 0 -139 c0 -123 3 -143 24 -190 13 -30 45 -72 74 -100 29 -26 51 -52 49 -56 -1 -5 1 -6 6 -3 5 3 31 -2 58 -10 57 -18 149 -13 205 10 20 8 57 31 82 50 42 32 49 34 77 24 17 -6 68 -9 113 -6 66 3 93 10 137 33 85 45 180 147 229 245 22 45 41 88 41 95 0 7 20 25 43 38 90 53 154 153 182 287 55 261 -50 627 -236 820 -50 53 -55 62 -51 95 6 51 -15 150 -46 215 -29 62 -130 169 -180 189 -17 7 -29 18 -25 24 3 6 1 7 -5 3 -6 -4 -35 0 -64 9 -28 8 -75 15 -105 15 -52 0 -53 1 -74 43 -31 60 -163 278 -222 367 -69 103 -191 259 -277 355 l-73 80 7 145 c3 80 10 226 16 325 10 181 18 337 46 890 8 165 21 417 29 560 33 607 32 616 -11 680 -13 20 -21 41 -18 47 4 6 2 8 -3 5 -6 -4 -22 2 -36 13 -32 25 -136 74 -307 143 -235 95 -1574 653 -2020 842 -285 121 -327 135 -395 141 -50 3 -109 -8 -360 -70z m426 -172 c35 -14 249 -104 474 -199 226 -95 718 -300 1095 -455 377 -155 693 -287 704 -292 10 -5 14 -14 10 -18 -9 -9 -180 -55 -609 -165 -143 -37 -294 -76 -335 -86 -122 -33 -872 -227 -1480 -383 -311 -80 -670 -172 -799 -205 -129 -34 -248 -61 -264 -61 -16 0 -76 26 -140 61 -62 34 -195 108 -297 164 -389 215 -600 331 -1053 580 -547 300 -560 307 -559 320 1 12 -13 8 372 101 815 195 1023 244 1039 244 10 0 103 -44 207 -98 770 -401 1594 -822 1607 -822 37 0 -113 155 -266 275 -42 33 -76 63 -77 67 0 14 173 -59 398 -168 84 -41 161 -74 171 -74 10 0 25 8 33 18 9 9 81 152 162 318 153 315 166 355 129 396 -18 20 -58 23 -96 9 -52 -20 -97 -75 -178 -216 -46 -81 -89 -145 -97 -145 -21 0 -1125 590 -1152 616 -22 21 -11 26 188 72 97 23 294 71 437 106 143 35 272 64 286 65 14 0 54 -11 90 -25z m-3372 -920 c182 -98 944 -517 1316 -724 215 -119 444 -245 510 -280 66 -35 131 -72 143 -84 l24 -21 -6 -410 c-7 -398 -15 -849 -36 -1995 -21 -1110 -28 -1389 -34 -1399 -4 -6 -32 5 -69 28 -151 92 -1413 892 -1680 1065 -57 37 -91 66 -98 84 -10 26 -8 126 3 137 3 3 31 -1 64 -10 68 -18 238 -20 316 -4 225 45 493 192 664 364 160 161 195 277 126 418 -47 94 -126 152 -222 164 l-49 6 -108 -105 c-125 -121 -193 -174 -285 -222 -116 -60 -204 -57 -278 11 -60 54 -68 92 -40 200 43 164 28 312 -41 416 l-32 48 22 82 c29 110 82 218 178 363 90 137 110 192 99 282 -19 164 -138 270 -313 280 -65 4 -96 0 -154 -18 -52 -15 -74 -18 -79 -10 -4 6 -10 102 -14 213 -16 488 -36 1036 -40 1076 -4 44 7 91 20 91 4 0 46 -21 93 -46z m5914 -211 c2 -5 -2 -102 -9 -218 -8 -115 -27 -471 -44 -790 -16 -319 -35 -659 -40 -755 -12 -208 -29 -517 -75 -1375 -36 -676 -41 -742 -55 -750 -8 -5 -283 -78 -1000 -265 -243 -64 -1316 -340 -2179 -561 -241 -62 -357 -87 -364 -80 -10 10 -3 619 23 1966 5 275 15 804 21 1174 6 371 14 684 19 695 6 17 50 31 271 87 421 106 1025 261 1544 396 264 68 656 170 870 225 215 55 525 136 690 178 320 84 322 84 328 73z m-6910 -905 c227 -108 476 -342 622 -584 19 -32 35 -66 35 -76 0 -11 -34 -51 -76 -91 -106 -100 -184 -222 -184 -287 0 -32 13 -23 39 26 44 82 195 201 312 244 55 21 58 24 64 63 29 169 157 293 316 305 74 5 117 -11 145 -53 25 -39 11 -83 -66 -200 -115 -173 -155 -267 -201 -460 -26 -112 -39 -144 -85 -206 -54 -74 -64 -129 -23 -129 27 0 90 33 113 59 28 30 43 26 66 -19 24 -46 25 -85 6 -158 -35 -130 -149 -254 -301 -327 -195 -93 -365 -101 -453 -20 -31 28 -37 40 -37 74 0 50 31 85 109 124 62 31 81 50 72 72 -7 19 -38 19 -123 -1 -157 -37 -308 4 -518 140 -256 166 -467 413 -547 638 -37 104 -38 179 -3 213 13 14 34 25 47 25 47 0 146 -60 268 -160 141 -117 176 -140 207 -140 27 0 38 31 22 62 -26 50 -126 162 -264 296 -116 112 -151 152 -171 197 -77 168 75 217 312 100 80 -39 215 -126 317 -203 37 -28 67 -48 67 -43 0 21 -141 206 -262 343 -71 80 -78 93 -78 130 0 29 7 49 23 66 34 37 127 29 230 -20z m7763 -2587 c47 -21 86 -68 104 -125 20 -62 9 -209 -22 -283 -14 -34 -23 -64 -21 -67 3 -3 21 7 40 20 44 29 66 30 108 4 140 -86 242 -453 191 -683 -18 -78 -50 -136 -59 -107 -3 8 -8 40 -10 71 -9 94 -56 183 -87 164 -5 -3 -9 -54 -9 -113 1 -124 -17 -220 -60 -323 -49 -117 -142 -209 -211 -209 -26 0 -26 3 5 205 25 171 17 271 -23 263 -12 -2 -21 -20 -30 -58 -26 -112 -65 -227 -100 -293 -122 -235 -326 -281 -363 -82 -9 47 4 211 27 341 28 160 7 190 -81 114 -68 -59 -101 -73 -186 -78 -63 -4 -82 -1 -117 17 -53 27 -76 69 -69 127 4 36 16 55 77 123 87 95 165 198 228 301 80 131 102 144 179 110 46 -20 73 -25 73 -13 0 3 -23 30 -51 60 -64 68 -91 128 -97 221 -5 77 15 145 45 156 23 9 30 0 47 -59 27 -91 89 -145 168 -145 135 0 228 113 228 277 0 89 8 95 76 64z m-2540 -2166 c28 -42 15 -112 -36 -190 -23 -36 -40 -68 -37 -72 3 -3 34 20 69 52 197 178 607 267 815 175 155 -68 236 -260 188 -445 -31 -116 -106 -213 -218 -278 -219 -129 -690 -142 -1111 -32 -118 31 -233 82 -292 130 -78 64 -122 193 -91 267 25 59 62 72 179 64 54 -4 98 -3 98 2 0 4 -27 21 -59 37 -133 63 -198 185 -140 259 28 35 44 33 95 -13 109 -102 277 -91 433 28 63 48 84 51 107 16z m-2768 -125 c73 -53 162 -80 263 -80 93 0 154 20 230 76 l52 38 19 -24 c16 -20 18 -33 13 -70 -9 -59 -63 -162 -120 -227 -25 -28 -45 -54 -45 -57 0 -3 37 13 83 34 128 62 219 82 372 83 79 1 152 -4 185 -12 127 -31 227 -110 278 -219 23 -49 27 -70 27 -152 0 -85 -3 -101 -30 -153 -54 -108 -171 -191 -325 -232 -87 -23 -390 -32 -531 -15 -120 14 -258 47 -354 85 -161 65 -261 147 -315 260 -29 60 -35 83 -38 161 -9 197 73 294 203 240 51 -22 50 -5 -2 45 -55 54 -82 109 -83 169 0 49 21 90 46 90 9 0 41 -18 72 -40z"/>
<path d="M6998 7327 c-153 -57 -273 -214 -228 -298 17 -31 37 -23 111 47 91 85 152 114 244 114 109 -1 186 -43 266 -146 34 -45 47 -54 68 -52 22 3 26 8 29 42 4 51 -43 149 -101 206 -67 68 -133 94 -252 97 -67 2 -112 -1 -137 -10z"/>
<path d="M5490 6993 c-142 -27 -312 -170 -389 -329 -39 -80 -48 -119 -31 -139 23 -28 49 -15 112 58 182 210 286 282 403 282 72 -1 112 -19 176 -82 53 -51 91 -56 97 -14 13 86 -61 176 -173 210 -62 20 -136 25 -195 14z"/>
<path d="M6914 6761 c-102 -25 -186 -131 -231 -292 -27 -97 -24 -375 5 -481 43 -158 101 -271 186 -364 42 -48 53 -54 87 -54 112 0 228 -121 229 -238 0 -53 -18 -89 -65 -131 -56 -49 -114 -68 -298 -96 -49 -8 -70 -44 -43 -74 59 -65 285 -42 430 43 169 99 194 332 55 507 l-31 39 20 27 c29 42 68 158 82 245 18 109 8 349 -19 450 -51 194 -145 345 -249 397 -45 22 -115 32 -158 22z m51 -485 c9 -13 21 -50 27 -82 27 -150 -58 -272 -126 -181 -22 30 -34 137 -22 201 15 78 87 115 121 62z"/>
<path d="M5486 6434 c-62 -19 -138 -95 -184 -181 -94 -179 -107 -469 -31 -698 70 -210 180 -315 328 -315 196 0 323 181 338 480 9 184 -43 419 -120 549 -46 76 -127 147 -189 166 -62 18 -79 18 -142 -1z m29 -466 c36 -16 59 -99 52 -191 -5 -81 -28 -120 -73 -125 -54 -5 -84 56 -84 170 0 75 18 130 47 147 23 13 27 13 58 -1z"/>
<path d="M5501 4979 c-131 -75 -241 -253 -186 -299 11 -9 23 -3 63 34 27 25 52 46 56 46 3 0 6 -17 6 -37 0 -56 44 -237 79 -328 76 -197 210 -360 352 -429 111 -53 192 -69 329 -64 181 7 286 54 426 193 85 85 139 161 224 315 59 108 92 146 171 200 61 42 109 93 109 115 0 23 -39 37 -89 32 -25 -2 -98 -16 -161 -31 -274 -64 -719 -38 -1033 60 -113 35 -287 104 -287 113 0 4 14 20 30 36 70 67 5 98 -89 44z m380 -559 c256 -26 455 -106 504 -201 30 -57 -20 -122 -117 -155 -70 -23 -221 -16 -301 15 -63 25 -170 116 -207 177 -21 33 -70 150 -70 166 0 11 67 10 191 -2z"/>
</g>
</svg> 